<svg width="126" height="128" viewBox="0 0 126 128" fill="none" xmlns="http://www.w3.org/2000/svg">
<path d="M120.846 60.4298C115.396 51.0098 106.846 43.7698 98.6565 36.8198C92.2365 31.3698 86.4965 25.7998 80.8865 19.4898C76.0665 14.0898 70.6465 6.37984 66.5965 1.97984C63.9565 -0.880161 61.5565 -0.430161 59.2465 1.97984C56.1465 5.21984 49.8765 13.9598 45.0465 19.3598C39.5135 25.5948 33.5452 31.4295 27.1865 36.8198C18.9865 43.7798 10.4365 51.0098 4.98646 60.4298C-0.863537 70.5298 -1.29354 81.9898 2.27646 92.9798C10.4465 118.21 37.0965 128.09 62.7765 127.85H63.0665C88.7365 128.09 115.396 118.21 123.566 92.9798C127.126 81.9898 126.696 70.5398 120.846 60.4298V60.4298ZM101.636 110.15C96.4965 114.16 90.2865 116.52 84.0565 117.7C77.3465 118.96 70.0365 119.4 62.9065 119.34C55.7665 119.4 48.4565 118.96 41.7565 117.7C35.5165 116.53 29.3165 114.16 24.1765 110.15C20.2065 107.05 11.6565 98.5698 16.8065 93.2198C18.6265 91.3198 20.5965 90.5298 22.9965 89.6698C29.6665 87.2598 36.0765 85.2598 43.0865 84.1798C49.7265 83.1498 56.2365 82.7898 62.8965 82.7298C69.5565 82.7898 76.0765 83.1498 82.7265 84.1798C89.7265 85.2598 96.1465 87.2498 102.806 89.6698C105.206 90.5298 107.196 91.3198 109.006 93.2198C114.156 98.5798 105.626 107.06 101.636 110.15Z" fill="#855C52"/>
</svg>
